<svg width="65" height="65" viewBox="0 0 65 65" fill="none" xmlns="http://www.w3.org/2000/svg">
<path d="M65 32.5C65 50.4532 50.448 65 32.5 65C14.552 65 0 50.4532 0 32.5C0 14.5572 14.552 0 32.5 0C50.448 0 65 14.5572 65 32.5ZM32.5 39.0524C29.1707 39.0524 26.4718 41.7514 26.4718 45.0806C26.4718 48.4099 29.1707 51.1089 32.5 51.1089C35.8293 51.1089 38.5282 48.4099 38.5282 45.0806C38.5282 41.7514 35.8293 39.0524 32.5 39.0524ZM26.7767 17.3841L27.7488 35.2067C27.7943 36.0407 28.4839 36.6935 29.3191 36.6935H35.6809C36.5161 36.6935 37.2057 36.0407 37.2512 35.2067L38.2233 17.3841C38.2724 16.4833 37.5552 15.7258 36.6531 15.7258H28.3468C27.4447 15.7258 26.7276 16.4833 26.7767 17.3841Z" fill="#E9731E"/>
</svg>
