<svg width="270" height="397" viewBox="0 0 270 397" fill="none" xmlns="http://www.w3.org/2000/svg">
<path d="M48.8926 127.81C45.6992 125.302 42.2929 123.41 39.9273 120.642C31.175 110.447 36.4264 94.3376 49.484 91.0732C52.1334 90.4109 52.8903 89.2991 52.843 86.6733C52.5118 61.6463 61.9502 40.8061 80.6851 24.3895C85.8892 19.824 92.1578 16.465 98.0479 12.7512C99.6801 11.7103 100.555 10.977 100.13 8.80077C99.0414 3.38375 101.975 -0.0698921 107.723 0.00107322C125.606 0.190314 143.489 0.0720356 161.349 0.0720356C167.712 0.0720356 170.03 2.4612 169.25 8.77711C168.966 11.0717 169.77 11.9232 171.592 12.8458C194.892 24.9572 209.605 43.7866 215.07 69.4761C216.323 75.3189 216.205 81.4692 216.489 87.5013C216.584 89.441 217.151 90.2689 219.067 90.7893C227.607 93.0602 233.071 99.1396 233.497 106.591C234.088 116.479 230.185 122.724 221.078 126.556C220.652 126.745 220.25 126.982 219.73 127.265C222.024 129.749 224.366 132.044 226.424 134.551C232.764 142.334 236.407 151.228 236.43 161.352C236.501 187.089 236.643 212.802 236.407 238.539C236.217 258.599 221.859 276.056 202.296 280.716C200.569 281.118 198.748 281.307 196.974 281.307C156.216 281.331 115.434 281.237 74.6767 281.402C64.0082 281.449 55.1376 277.381 47.4497 270.544C37.2307 261.461 32.2631 249.917 32.334 236.126C32.4523 212.093 32.4287 188.083 32.334 164.049C32.2867 149.88 37.4199 138.123 48.0647 128.779C48.4668 128.425 48.798 127.951 48.9399 127.786L48.8926 127.81ZM102.046 25.0991C100.295 25.998 98.9941 26.5184 97.8587 27.2754C76.6637 41.1373 65.6641 60.6527 65.4512 86.1056C65.4039 90.4345 65.4512 90.4582 69.7801 90.4582C113.022 90.4582 156.239 90.4582 199.481 90.4582C200.049 90.4582 200.616 90.4109 201.184 90.4582C203.124 90.6238 203.952 89.8195 203.833 87.8325C203.597 83.9767 203.763 80.0736 203.218 76.2414C200.167 54.6916 189.144 38.3223 170.74 26.8496C169.77 26.2582 168.635 25.9034 167.263 25.312C166.387 32.2666 165.607 38.7245 164.803 45.1586C164.046 51.1434 163.36 57.1518 162.508 63.1129C162.011 66.5429 158.818 68.8847 155.601 68.4353C152.407 67.9858 149.616 64.7687 149.971 61.6462C150.728 54.9992 151.65 48.3521 152.455 41.7287C153.519 33.1182 154.465 24.4841 155.624 15.8973C156.027 13.0114 154.986 12.349 152.289 12.3727C140.556 12.491 128.823 12.42 117.09 12.42C113.66 12.42 113.376 12.6092 113.755 15.921C114.938 25.9507 116.239 35.9332 117.469 45.9629C118.107 51.1198 118.817 56.2529 119.314 61.4097C119.669 65.0763 116.925 68.1987 113.424 68.4826C110.325 68.7428 107.202 66.3536 106.777 63.1129C105.925 56.7497 105.215 50.3864 104.435 44.0232C103.678 37.9438 102.897 31.8882 102.046 25.1465V25.0991ZM134.619 103.09C108.03 103.09 81.442 103.09 54.8537 103.066C52.7484 103.066 50.9033 103.35 49.6023 105.195C48.0883 107.324 48.0174 109.642 49.1055 111.913C50.2883 114.35 52.5119 114.894 55.043 114.894C108.125 114.894 161.207 114.894 214.265 114.87C215.117 114.87 215.992 114.87 216.796 114.634C219.611 113.877 221.149 111.227 220.771 107.963C220.416 104.911 218.287 103.09 214.904 103.09C188.127 103.09 161.349 103.09 134.571 103.09H134.619ZM177.221 209.845C190.847 209.845 201.563 199.153 201.539 185.599C201.515 170.885 188.86 161.211 177.34 161.494C163.762 161.849 152.904 172.305 152.904 185.765C152.904 198.964 163.904 209.845 177.221 209.845ZM91.8503 162.701C79.8335 162.038 67.4855 171.477 67.32 186.876C67.2017 200.218 78.2013 210.815 91.6137 210.815C105.121 210.815 115.789 200.241 115.789 186.805C115.789 172.731 104.151 162.015 91.8266 162.677L91.8503 162.701ZM131.922 238.681C140.249 238.634 146.659 235.748 152.289 230.946C154.418 229.124 154.725 226.546 153.259 224.322C151.769 222.051 149.569 221.839 147.251 222.501C146.375 222.737 145.595 223.4 144.885 224.015C140.674 227.729 135.778 229.172 130.195 228.651C125.37 228.225 121.443 225.955 117.634 223.211C114.938 221.271 112.288 221.531 110.585 223.731C108.906 225.884 109.379 229.148 111.792 231.017C117.918 235.819 124.849 238.492 131.898 238.681H131.922Z" fill="#10B981"/>
<path d="M94.9018 330.51C92.0159 333.68 89.2956 336.66 86.4569 339.783C85.558 338.742 84.8484 337.867 84.0914 337.039C78.1777 330.676 68.6447 331.101 63.3223 337.961C57.2902 345.744 58.0945 357.595 65.0727 364.1C69.851 368.548 77.4916 368.666 82.4119 364.361C84.4936 362.539 85.7473 360.316 85.5817 357.004C82.199 357.004 78.84 356.909 75.481 357.051C73.4466 357.146 72.5241 356.554 72.6424 354.378C72.7843 351.942 72.666 349.505 72.666 346.856H99.1124V354.757C101.738 349.292 105.121 344.656 111.129 342.905C116.948 341.226 122.531 341.817 127.759 345.862C127.972 344.869 128.161 344.041 128.397 343C131.969 343 135.447 342.929 138.924 343.071C139.515 343.095 140.58 344.088 140.603 344.656C140.698 355.892 140.674 367.128 140.674 378.577H128.326C128.208 377.584 128.09 376.685 127.948 375.715C114.89 385.745 99.4909 376.377 98.8759 362.161C98.6393 362.397 98.3791 362.563 98.3081 362.799C94.2158 373.894 85.7 379.05 74.4638 379.76C62.447 380.517 53.6473 374.674 48.2776 364.242C40.1639 348.464 46.8347 326.938 64.7652 321.758C75.7412 318.588 85.9365 320.67 94.1212 329.375C94.3577 329.635 94.547 329.966 94.9018 330.534V330.51ZM120.402 368.973C125.157 368.95 128.326 365.662 128.279 360.86C128.232 356.223 124.778 352.699 120.26 352.722C115.695 352.722 112.265 356.247 112.265 360.86C112.265 365.898 115.363 368.973 120.402 368.95V368.973Z" fill="#10B981"/>
<path d="M194.395 360.954C196.997 355.395 199.41 350.403 201.634 345.318C202.391 343.614 203.313 342.857 205.229 342.928C208.967 343.07 212.728 342.976 216.867 342.976C216.465 344.064 216.3 344.774 215.992 345.389C207.405 361.876 198.795 378.364 190.232 394.851C189.475 396.294 188.623 396.933 186.967 396.886C183.112 396.767 179.28 396.862 174.903 396.862C175.518 395.514 175.897 394.591 176.346 393.716C179.611 387.424 182.899 381.179 186.092 374.863C186.494 374.059 186.778 372.781 186.4 372.095C182.378 364.738 178.239 357.429 173.933 349.812C172.964 351.586 172.136 353.076 171.402 354.448C169.368 353.999 167.499 353.313 165.607 353.195C160.639 352.887 157.824 355.608 157.753 360.646C157.682 365.661 157.753 370.676 157.73 375.667C157.73 376.59 157.659 377.512 157.588 378.6H145.311C145.24 377.843 145.122 377.039 145.098 376.235C145.098 366.11 145.145 356.01 145.051 345.885C145.051 343.685 145.618 342.834 147.889 342.952C151.059 343.118 154.252 342.999 157.564 342.999C157.659 344.608 157.73 345.838 157.801 347.352C158.463 346.808 159.031 346.406 159.504 345.933C162.626 342.881 166.34 341.817 170.645 342.242C174.478 342.621 178.333 342.858 182.189 342.952C183.916 342.999 184.909 343.52 185.737 345.105C188.434 350.285 191.296 355.371 194.371 361.001L194.395 360.954Z" fill="#10B981"/>
<path d="M246.413 194.375C246.413 183.02 246.484 171.69 246.365 160.335C246.342 157.828 247.193 157.189 249.535 157.567C262.545 159.696 269.24 167.479 269.24 180.655C269.24 190.212 269.24 199.745 269.24 209.301C269.24 220.963 262.545 229.03 251.144 231.206C246.933 232.01 246.389 231.561 246.389 227.255C246.389 216.279 246.389 205.327 246.389 194.351L246.413 194.375Z" fill="#10B981"/>
<path d="M22.3042 194.588C22.3042 205.824 22.2332 217.084 22.3515 228.32C22.3752 230.922 21.4763 231.584 19.0635 231.395C8.72619 230.591 0.0920985 221.578 0.0447883 211.288C-0.00252185 200.147 -0.0261769 188.982 0.0447883 177.84C0.115754 167.432 9.41219 158.064 19.4656 157.922C21.7601 157.899 22.3515 158.679 22.3279 160.879C22.2333 172.115 22.2806 183.375 22.2806 194.611L22.3042 194.588Z" fill="#10B981"/>
<path d="M224.224 363.792C228.813 363.792 232.196 367.27 232.172 371.906C232.125 376.306 228.648 379.807 224.271 379.854C219.848 379.901 216.087 376.211 216.087 371.811C216.087 367.364 219.73 363.769 224.248 363.792H224.224Z" fill="#10B981"/>
<path d="M191.486 185.906C191.438 193.76 185.028 200.194 177.269 200.17C169.534 200.17 162.91 193.381 162.957 185.575C163.005 177.603 169.415 171.477 177.624 171.548C185.666 171.619 191.533 177.698 191.486 185.906Z" fill="#10B981"/>
<path d="M91.661 172.635C99.9167 172.635 105.783 178.502 105.783 186.734C105.783 194.847 99.7747 200.69 91.5664 200.785C83.5947 200.879 77.4917 194.989 77.3024 186.686C77.1132 178.691 83.5473 172.635 91.6374 172.659L91.661 172.635Z" fill="#10B981"/>
</svg>
