<svg width="65" height="65" viewBox="0 0 65 65" fill="none" xmlns="http://www.w3.org/2000/svg">
<path d="M58.0357 65H6.96429C3.11797 65 0 61.882 0 58.0357V6.96429C0 3.11797 3.11797 0 6.96429 0H58.0357C61.882 0 65 3.11797 65 6.96429V58.0357C65 61.882 61.882 65 58.0357 65ZM28.338 50.7727L55.0344 24.0763C55.9409 23.1697 55.9409 21.6998 55.0344 20.7933L51.7515 17.5104C50.8449 16.6039 49.375 16.6037 48.4684 17.5104L26.6964 39.2822L16.5316 29.1174C15.6251 28.2109 14.1552 28.2109 13.2485 29.1174L9.9656 32.4003C9.05908 33.3068 9.05908 34.7767 9.9656 35.6833L25.0549 50.7725C25.9616 51.6794 27.4313 51.6794 28.338 50.7727Z" fill="#E94F1E"/>
</svg>
