<svg width="124" height="109" viewBox="0 0 124 109" fill="none" xmlns="http://www.w3.org/2000/svg">
<path d="M62 0C27.7547 0 0 22.6516 0 50.6071C0 62.675 5.18281 73.721 13.8047 82.4069C10.7773 94.6694 0.653906 105.594 0.532813 105.715C0 106.275 -0.145312 107.102 0.169531 107.832C0.484375 108.562 1.1625 109 1.9375 109C17.9945 109 30.0313 101.263 35.9891 96.4942C43.9086 99.4868 52.7 101.214 62 101.214C96.2453 101.214 124 78.5627 124 50.6071C124 22.6516 96.2453 0 62 0ZM31 58.3929C26.7133 58.3929 23.25 54.9136 23.25 50.6071C23.25 46.3007 26.7133 42.8214 31 42.8214C35.2867 42.8214 38.75 46.3007 38.75 50.6071C38.75 54.9136 35.2867 58.3929 31 58.3929ZM62 58.3929C57.7133 58.3929 54.25 54.9136 54.25 50.6071C54.25 46.3007 57.7133 42.8214 62 42.8214C66.2867 42.8214 69.75 46.3007 69.75 50.6071C69.75 54.9136 66.2867 58.3929 62 58.3929ZM93 58.3929C88.7133 58.3929 85.25 54.9136 85.25 50.6071C85.25 46.3007 88.7133 42.8214 93 42.8214C97.2867 42.8214 100.75 46.3007 100.75 50.6071C100.75 54.9136 97.2867 58.3929 93 58.3929Z" fill="#10B981"/>
</svg>
