<svg width="94" height="110" viewBox="0 0 94 110" fill="none" xmlns="http://www.w3.org/2000/svg">
<path d="M25.2706 109.494C21.9229 109.512 18.6055 108.86 15.5129 107.578C12.4204 106.296 9.61508 104.41 7.26154 102.029C4.90799 99.6482 3.05364 96.8213 1.80728 93.7143C0.560924 90.6072 -0.0523317 87.2825 0.00349631 83.9353V24.7528C0.0123176 21.4919 0.68046 18.2664 1.96775 15.2703C3.25505 12.2742 5.13491 9.5693 7.49432 7.31831C12.2421 2.66724 18.6242 0.0629669 25.2706 0.0645007H59.7592C60.2423 -0.0215002 60.7368 -0.0215002 61.2199 0.0645007H61.9365C62.4938 0.0658675 63.0453 0.178736 63.5583 0.39646C64.0714 0.614185 64.5357 0.932364 64.924 1.33226L92.8423 30.4136C93.5833 31.1841 93.998 32.211 93.9998 33.2799V83.9353C94.0245 90.5729 91.4576 96.9581 86.8456 101.732C82.2336 106.505 75.9406 109.291 69.306 109.494H25.2706ZM25.2706 8.33252C20.8561 8.31465 16.609 10.0209 13.4339 13.0879C10.2588 16.1549 8.40651 20.3404 8.27151 24.7528V83.9353C8.21378 88.524 9.97101 92.9497 13.1607 96.2491C14.7464 97.8463 16.637 99.1085 18.7202 99.9607C20.8033 100.813 23.0365 101.238 25.2871 101.21H69.317C71.4883 101.173 73.6295 100.696 75.6114 99.8081C77.5933 98.9204 79.3747 97.6404 80.8482 96.0452C83.9574 92.7697 85.7051 88.4348 85.7373 83.9187V38.4887H80.9033H74.6472C69.9727 38.4793 65.4787 36.6835 62.0849 33.4691C58.6912 30.2546 56.6543 25.8646 56.3914 21.1975L56.3638 20.1613V8.32701L25.2706 8.33252ZM64.6263 20.1668C64.6263 22.8304 65.6833 25.3852 67.5652 27.2702C69.4471 29.1552 72.0001 30.2163 74.6637 30.2207H81.2065L64.6208 12.9626L64.6263 20.1668ZM40.7924 77.8059L40.7538 77.2547V51.0175L32.1606 59.6383C31.4624 60.3424 30.5344 60.772 29.5458 60.8489C28.5573 60.9258 27.574 60.6448 26.7753 60.0572L26.3068 59.6549C25.6071 58.9533 25.1822 58.024 25.1094 57.0359C25.0366 56.0477 25.3206 55.0662 25.9099 54.2696L26.3068 53.8066L41.9444 38.0919C42.334 37.7003 42.7982 37.3907 43.3094 37.1816C43.8207 36.9724 44.3687 36.8678 44.9211 36.8739C45.4734 36.8801 46.019 36.9969 46.5254 37.2175C47.0319 37.438 47.489 37.7578 47.8698 38.158L63.4468 53.8011C64.176 54.5415 64.5997 55.5294 64.6334 56.5681C64.6671 57.6068 64.3084 58.6201 63.6286 59.4062C62.9489 60.1923 61.998 60.6935 60.9653 60.8101C59.9326 60.9266 58.8939 60.65 58.056 60.0352L57.5875 59.6328L49.0053 51.023V77.2382C49.0022 78.2846 48.6024 79.291 47.8864 80.0543C47.1705 80.8175 46.1917 81.2808 45.1476 81.3508C44.1034 81.4207 43.0716 81.092 42.2603 80.4311C41.4489 79.7701 40.9185 78.8261 40.7758 77.7894L40.7924 77.8059Z" fill="#10B981"/>
</svg>
