<svg width="9" height="12" viewBox="0 0 9 12" fill="none" xmlns="http://www.w3.org/2000/svg">
<path d="M7.7936 5.50479C7.32709 5.15153 6.94814 4.66543 6.88792 4.08337L6.80005 3.23397C6.74561 2.70774 7.15844 2.25 7.68748 2.25C7.99814 2.25 8.24998 1.99816 8.24998 1.6875V0.562499C8.24998 0.251836 7.99814 0 7.68748 0H1.3125C1.00183 0 0.749998 0.251836 0.749998 0.562499V1.6875C0.749998 1.99816 1.00183 2.25 1.3125 2.25C1.84154 2.25 2.25437 2.70774 2.19993 3.23397L2.11205 4.08337C2.05184 4.66543 1.67284 5.15147 1.20638 5.50479C0.48753 6.04929 0 6.80138 0 7.68749C0 7.99815 0.251835 8.24999 0.562499 8.24999H1.31233C2.65861 8.24999 3.74999 9.34137 3.74999 10.6877C3.74999 10.7168 3.75676 10.7455 3.76979 10.7715L4.33229 11.8965C4.40122 12.0344 4.59864 12.0346 4.66771 11.8965L5.23021 10.7715C5.24322 10.7455 5.25 10.7168 5.25001 10.6877C5.25001 9.34137 6.34139 8.24999 7.68767 8.24999H8.4375C8.74817 8.24999 9 7.99815 9 7.68749C8.99998 6.79577 8.50809 6.04581 7.7936 5.50479Z" fill="#10B981"/>
</svg>
