<svg width="21" height="18" viewBox="0 0 21 18" fill="none" xmlns="http://www.w3.org/2000/svg">
<path d="M20.3438 14.1429H6.5625V13.5C6.5625 13.1464 6.26719 12.8571 5.90625 12.8571H4.59375C4.23281 12.8571 3.9375 13.1464 3.9375 13.5V14.1429H0.65625C0.295312 14.1429 0 14.4321 0 14.7857V16.0714C0 16.425 0.295312 16.7143 0.65625 16.7143H3.9375V17.3571C3.9375 17.7107 4.23281 18 4.59375 18H5.90625C6.26719 18 6.5625 17.7107 6.5625 17.3571V16.7143H20.3438C20.7047 16.7143 21 16.425 21 16.0714V14.7857C21 14.4321 20.7047 14.1429 20.3438 14.1429ZM20.3438 7.71429H17.0625V7.07143C17.0625 6.71786 16.7672 6.42857 16.4062 6.42857H15.0938C14.7328 6.42857 14.4375 6.71786 14.4375 7.07143V7.71429H0.65625C0.295312 7.71429 0 8.00357 0 8.35714V9.64286C0 9.99643 0.295312 10.2857 0.65625 10.2857H14.4375V10.9286C14.4375 11.2821 14.7328 11.5714 15.0938 11.5714H16.4062C16.7672 11.5714 17.0625 11.2821 17.0625 10.9286V10.2857H20.3438C20.7047 10.2857 21 9.99643 21 9.64286V8.35714C21 8.00357 20.7047 7.71429 20.3438 7.71429ZM20.3438 1.28571H11.8125V0.642857C11.8125 0.289286 11.5172 0 11.1562 0H9.84375C9.48281 0 9.1875 0.289286 9.1875 0.642857V1.28571H0.65625C0.295312 1.28571 0 1.575 0 1.92857V3.21429C0 3.56786 0.295312 3.85714 0.65625 3.85714H9.1875V4.5C9.1875 4.85357 9.48281 5.14286 9.84375 5.14286H11.1562C11.5172 5.14286 11.8125 4.85357 11.8125 4.5V3.85714H20.3438C20.7047 3.85714 21 3.56786 21 3.21429V1.92857C21 1.575 20.7047 1.28571 20.3438 1.28571Z" fill="black"/>
</svg>
