<svg width="28" height="25" viewBox="0 0 28 25" fill="none" xmlns="http://www.w3.org/2000/svg">
<path d="M7.07904 24.4196C6.77833 24.7879 6.35932 25 5.91566 25C5.47201 25 5.05299 24.7879 4.75229 24.4196L0.414298 19.0625C-0.172317 18.3371 -0.132881 17.2042 0.512889 16.5402C1.15866 15.8761 2.15442 15.9208 2.74104 16.6518L4.33821 18.6217V1.78571C4.33821 0.797991 5.04314 0 5.91566 0C6.78819 0 7.49312 0.797991 7.49312 1.78571V18.6217L9.09029 16.6462C9.6769 15.9208 10.6776 15.8705 11.3184 16.5346C11.9593 17.1987 12.0036 18.3315 11.417 19.0569L7.07904 24.4141V24.4196ZM15.3804 25C14.5079 25 13.8029 24.202 13.8029 23.2143C13.8029 22.2266 14.5079 21.4286 15.3804 21.4286H16.9578C17.8304 21.4286 18.5353 22.2266 18.5353 23.2143C18.5353 24.202 17.8304 25 16.9578 25H15.3804ZM15.3804 17.8571C14.5079 17.8571 13.8029 17.0592 13.8029 16.0714C13.8029 15.0837 14.5079 14.2857 15.3804 14.2857H20.1127C20.9853 14.2857 21.6902 15.0837 21.6902 16.0714C21.6902 17.0592 20.9853 17.8571 20.1127 17.8571H15.3804ZM15.3804 10.7143C14.5079 10.7143 13.8029 9.9163 13.8029 8.92857C13.8029 7.94085 14.5079 7.14286 15.3804 7.14286H23.2676C24.1402 7.14286 24.8451 7.94085 24.8451 8.92857C24.8451 9.9163 24.1402 10.7143 23.2676 10.7143H15.3804ZM15.3804 3.57143C14.5079 3.57143 13.8029 2.77344 13.8029 1.78571C13.8029 0.797991 14.5079 0 15.3804 0H26.4225C27.2951 0 28 0.797991 28 1.78571C28 2.77344 27.2951 3.57143 26.4225 3.57143H15.3804Z" fill="#10B981"/>
</svg>
