<svg width="21" height="15" viewBox="0 0 21 15" fill="none" xmlns="http://www.w3.org/2000/svg">
<path d="M4.5 9H1.5C0.671719 9 0 9.67172 0 10.5V13.5C0 14.3283 0.671719 15 1.5 15H4.5C5.32828 15 6 14.3283 6 13.5V10.5C6 9.67172 5.32828 9 4.5 9ZM12 9H9C8.17172 9 7.5 9.67172 7.5 10.5V13.5C7.5 14.3283 8.17172 15 9 15H12C12.8283 15 13.5 14.3283 13.5 13.5V10.5C13.5 9.67172 12.8283 9 12 9ZM19.5 9H16.5C15.6717 9 15 9.67172 15 10.5V13.5C15 14.3283 15.6717 15 16.5 15H19.5C20.3283 15 21 14.3283 21 13.5V10.5C21 9.67172 20.3283 9 19.5 9ZM4.5 0H1.5C0.671719 0 0 0.671719 0 1.5V4.5C0 5.32828 0.671719 6 1.5 6H4.5C5.32828 6 6 5.32828 6 4.5V1.5C6 0.671719 5.32828 0 4.5 0ZM12 0H9C8.17172 0 7.5 0.671719 7.5 1.5V4.5C7.5 5.32828 8.17172 6 9 6H12C12.8283 6 13.5 5.32828 13.5 4.5V1.5C13.5 0.671719 12.8283 0 12 0ZM19.5 0H16.5C15.6717 0 15 0.671719 15 1.5V4.5C15 5.32828 15.6717 6 16.5 6H19.5C20.3283 6 21 5.32828 21 4.5V1.5C21 0.671719 20.3283 0 19.5 0Z" fill="black"/>
</svg>
