<svg width="16" height="21" viewBox="0 0 16 21" fill="none" xmlns="http://www.w3.org/2000/svg">
<path d="M9.33333 5.57812V0H1C0.445833 0 0 0.438867 0 0.984375V20.0156C0 20.5611 0.445833 21 1 21H15C15.5542 21 16 20.5611 16 20.0156V6.5625H10.3333C9.78333 6.5625 9.33333 6.11953 9.33333 5.57812ZM12 15.2578C12 15.5285 11.775 15.75 11.5 15.75H4.5C4.225 15.75 4 15.5285 4 15.2578V14.9297C4 14.659 4.225 14.4375 4.5 14.4375H11.5C11.775 14.4375 12 14.659 12 14.9297V15.2578ZM12 12.6328C12 12.9035 11.775 13.125 11.5 13.125H4.5C4.225 13.125 4 12.9035 4 12.6328V12.3047C4 12.034 4.225 11.8125 4.5 11.8125H11.5C11.775 11.8125 12 12.034 12 12.3047V12.6328ZM12 9.67969V10.0078C12 10.2785 11.775 10.5 11.5 10.5H4.5C4.225 10.5 4 10.2785 4 10.0078V9.67969C4 9.40898 4.225 9.1875 4.5 9.1875H11.5C11.775 9.1875 12 9.40898 12 9.67969ZM16 4.9998V5.25H10.6667V0H10.9208C11.1875 0 11.4417 0.102539 11.6292 0.287109L15.7083 4.30664C15.8958 4.49121 16 4.74141 16 4.9998Z" fill="black"/>
</svg>
